# xmcd
#
# Track frame offsets: 
#        182
#        15910
#        34357
#        50370
#        68290
#        80607
#        97200
#        113220
#        127990
#        145745
#        161147
#        175982
#        189582
#        201647
#        220452
#        237335
#        252510
#        273775
#        291570
#        307190
#
# Disc length: 4332 seconds
#
# Revision: 7
# Processed by: cddbd v1.5.2PL0 Copyright (c) Steve Scherf et al.
# Submitted via: ExactAudioCopy v1.0b1
#
DISCID=3410ea14
DTITLE=Smokie and Chris Norman - The Best Of 20 Years (BMG 29064-2)
DYEAR=1995
DGENRE=PopRock
TTITLE0=Living Next Door To Alice
TTITLE1=Lay Back In The Arms Of Someone
TTITLE2=It's Your Life
TTITLE3=Mexican Girl
TTITLE4=Needles And Pins
TTITLE5=Oh Carol
TTITLE6=For A Few Dollars More
TTITLE7=I'll Meet you At Midnight
TTITLE8=Wild Wild Angels
TTITLE9=If You Think You Know How To Love Me
TTITLE10=Don't Play Your Rock'N'Roll To Me
TTITLE11=Something's Been Making Me Blue
TTITLE12=Roll On Baby
TTITLE13=Midnight Lady
TTITLE14=Some Hearts Are Diamonds
TTITLE15=Broken Heroes
TTITLE16=Sarah (You Take My Breath Away)
TTITLE17=Stumblin' In
TTITLE18=I Wanted To Be Needed
TTITLE19=Alice (Who The X Is Alice?) (Living Next Door To Alice)
EXTD=YEAR: 1995
EXTT0=
EXTT1=
EXTT2=
EXTT3=
EXTT4=
EXTT5=
EXTT6=
EXTT7=
EXTT8=
EXTT9=
EXTT10=
EXTT11=
EXTT12=
EXTT13=
EXTT14=
EXTT15=
EXTT16=
EXTT17=
EXTT18=
EXTT19=
PLAYORDER=
